**ABCDEFGHIJKLMNOPQRSTUVWXYZabcdefghijklmnopqrstuvwxyz**************************
**PARASOLID !"#$%&'()*+,-./:;<=>?@[\]^_`{|}~0123456789**************************
**PART1;
MC=AMD64;
MC_MODEL=Intel64 Family 6 Model 58 Stepping 9, GenuineIntel;
MC_ID=unknown;
OS=Windows_NT;
OS_RELEASE=unknown;
FRU=Parasolid Version 24.1, build 257,  2-12-2013;
APPL=SolidWorks 2013-2013086;
SITE=;
USER=unknown;
FORMAT=text;
GUISE=transmit;
KEY=actuator body;
FILE=actuator body.x_t;
DATE=Mon Jul 11 19:50:23 2016;
**PART2;
SCH=SCH_2401257_20000;
USFLD_SIZE=0;
**PART3;
**END_OF_HEADER*****************************************************************
T51 : TRANSMIT FILE created by modeller version 240125723 SCH_2401257_20000_1300
6189 0 12 27 CCCCCCCCCCCCCCCCCCCCCCCA16 index_map_offset0 0 1 dA9 index_map82 0
 A17 node_id_index_map82 0 A20 schema_embedding_map82 0 Z1 1728 0 2 0 0 0 0 1e3
 1e-8 0 3 0 1 0 1 1 4 5 6 7 8 9 10 0 0 0 0 70 11 CI9 list_type0 0 1 uI10 notrans
mit0 0 1 lCCCDCCDI12 finger_index0 0 1 dI12 finger_block1012 0 CZ2 0 4 T1 0 0 2
 20 1 11 11 13 255 4 484 0 1 0 12 0 0 13 0 51 255 5 483 0 14 15 0 0 -.2029275 .0
0502125 .009 0 0 -1 .002124999999999975 -1 0 0 31 255 6 1067 0 9 16 0 0 +.204288
3436295995 .00665334362959937 .004 0 0 1 1 0 0 .003389156370400635 29 255 7 617
 0 10 17 0 .1454775 .011945 -.005975 19 255 8 154 0 1 13 0 18 V16 255 9 1065 0 ?
19 0 20 6 0 0 1 18 255 10 615 0 21 0 22 7 ?1 17 255 21 0 23 24 25 10 26 27 0 28
 +18 22 134 0 29 10 30 31 ?1 17 29 0 32 33 34 22 35 36 0 37 -18 30 131 0 38 22 3
9 40 ?1 29 31 136 0 22 40 41 .1986775 -.0020675 .009 29 40 133 0 30 42 31 .19817
75 -.0025675 .009 29 41 375 0 43 31 44 .1986775 .0169225 -.009 18 43 333 0 45 46
 47 41 ?1 29 44 374 0 46 41 48 .1981775 .0174225 -.009 18 46 332 0 49 50 43 44 ?
1 29 48 373 0 50 44 51 .1548775 .0174225 -.009 18 50 331 0 52 53 46 48 ?1 29 51
 372 0 53 48 54 .1543775 .0169225 -.009 18 53 330 0 55 56 50 51 ?1 29 54 371 0 5
6 51 57 .1543775 .0150125 -.009 18 56 329 0 58 59 53 54 ?1 29 57 370 0 59 54 60
 .1538775 .0145125 -.009 18 59 328 0 61 62 56 57 ?1 29 60 369 0 62 57 63 .145977
5 .0145125 -.009 18 62 327 0 64 65 59 60 ?1 29 63 368 0 65 60 66 .1454775 .01401
25 -.009 18 65 326 0 67 68 62 63 ?1 29 66 367 0 68 63 69 .1454775 -.0020675 -.00
9 18 68 325 0 70 71 65 66 ?1 29 69 366 0 71 66 72 .1459775 -.0025675 -.009 18 71
 324 0 73 74 68 69 ?1 29 72 365 0 74 69 17 .1981775 -.0025675 -.009 18 74 323 0
 75 76 71 72 ?1 29 17 364 0 76 72 7 .1986775 -.0020675 -.009 18 76 322 0 33 77 7
4 17 ?1 17 33 0 32 45 29 76 78 79 0 80 +18 77 101 0 35 81 76 82 ?1 17 35 0 83 84
 37 77 29 36 0 34 +18 81 104 0 84 85 77 86 ?1 29 82 103 0 77 87 86 .1986775 .016
9225 .009 29 87 732 0 88 89 82 .1454775 0 -.005975 29 86 106 0 81 82 90 .1981775
 .0174225 .009 29 90 109 0 85 86 91 .1548775 .0174225 .009 18 85 107 0 92 93 81
 90 ?1 29 91 112 0 93 90 94 .1543775 .0169225 .009 18 93 110 0 95 96 85 91 ?1 29
 94 115 0 96 91 97 .1543775 .0150125 .009 18 96 113 0 98 99 93 94 ?1 29 97 118 0
 99 94 100 .1538775 .0145125 .009 18 99 116 0 101 102 96 97 ?1 29 100 121 0 102
 97 103 .1459775 .0145125 .009 18 102 119 0 104 105 99 100 ?1 29 103 124 0 105 1
00 106 .1454775 .0140125 .009 18 105 122 0 107 108 102 103 ?1 29 106 127 0 108 1
03 42 .1454775 -.0020675 .009 18 108 125 0 109 39 105 106 ?1 29 42 130 0 39 106
 40 .1459775 -.0025675 .009 18 39 128 0 110 30 108 42 ?1 17 110 0 83 38 111 39 1
12 113 0 114 +15 255 83 1055 0 37 115 0 17 38 0 83 37 110 30 116 117 0 118 +17 1
11 0 83 110 119 108 120 121 0 0 -17 112 0 122 70 114 108 110 113 0 111 -16 113 6
0 0 ?110 117 121 123 0 0 1 17 114 0 122 112 73 39 124 125 0 116 -15 122 413 0 73
 126 0 17 73 0 122 114 70 71 127 128 0 124 +17 124 0 129 75 116 71 114 125 0 130
 +16 125 386 0 ?124 131 132 133 0 0 1 17 116 0 129 124 118 39 38 117 0 0 -15 129
 411 0 75 134 0 17 118 0 129 116 75 30 135 132 0 136 -16 117 64 0 ?38 137 113 13
8 0 0 1 16 137 68 0 ?37 139 117 140 0 0 1 30 255 138 65 0 117 123 140 0 +-319964
2618225875e-34 -.0025675 .009 1 -12462093936615e-29 0 31 123 61 0 113 141 138 0
 +.1459775 -.0020675 .009 0 0 1 1 0 0 5e-4 31 140 69 0 137 138 142 0 +.1981775 -
.0020675 .009 0 0 1 1 0 0 .000500000000000014 31 142 353 0 143 140 144 0 +.19817
75 .0169225 -.009 0 0 1 1 0 0 5e-4 16 143 287 0 ?49 145 146 142 0 0 1 30 144 352
 0 145 142 147 0 +-2791983349672595e-33 .0174225 -.009 -1 -1602515913142545e-31
 0 16 145 282 0 ?52 148 143 144 0 0 1 31 147 351 0 148 144 149 0 +.1548775 .0169
225 -.009 0 0 1 1 0 0 5e-4 16 148 277 0 ?55 150 145 147 0 0 1 30 149 350 0 150 1
47 151 0 +.1543775 0 -.009 0 -1 0 16 150 272 0 ?58 152 148 149 0 0 1 31 151 349
 0 152 149 153 0 -.1538775 .0150125 -.009 0 0 1 1 0 0 5e-4 16 152 267 0 ?61 154
 150 151 0 0 1 30 153 348 0 154 151 155 0 +318673094241943e-32 .0145125 -.009 -1
 2195852501236465e-31 0 16 154 262 0 ?156 157 152 153 0 0 1 31 155 347 0 157 153
 158 0 -.1459775 .0140125 -.009 0 0 1 1 0 0 5e-4 16 157 257 0 ?159 160 154 155 0
 0 1 30 158 346 0 160 155 161 0 +.1454775 0 -.009 0 1 0 16 160 250 0 ?162 128 15
7 158 0 0 1 31 161 345 0 128 158 163 0 +.1459775 -.0020675 -.009 0 0 1 1 0 0 5e-
4 16 128 245 0 ?73 164 160 161 0 0 1 30 163 344 0 164 161 165 0 +-31996426182258
75e-34 -.0025675 -.009 1 -12462093936615e-29 0 16 164 240 0 ?75 166 128 163 0 0
 1 31 165 343 0 166 163 167 0 +.1981775 -.0020675 -.009 0 0 1 1 0 0 .00050000000
0000014 16 166 235 0 ?80 168 164 165 0 0 1 30 167 342 0 168 165 169 0 +.1986775
 2667186638149505e-30 -.009 1342470404625338e-29 -1 0 16 168 230 0 ?170 36 166 1
67 0 0 1 30 169 443 0 139 167 171 0 +.2042883436295995 .0100425 .009 0 0 -1 16 1
39 1060 0 ?172 173 137 169 0 0 1 30 171 444 0 173 169 174 0 +.2076775 .006653343
62959937 .009 0 0 -1 16 173 1063 0 ?175 176 139 171 0 0 1 30 174 445 0 176 171 1
77 0 +.2076775 .00338915637040064 .009 0 0 -1 16 176 1076 0 ?178 179 173 174 0 0
 1 30 177 446 0 179 174 180 0 +.2042883436295995 0 .009 0 0 -1 16 179 1083 0 ?18
1 182 176 177 0 0 1 30 180 447 0 182 177 183 0 +.1986775 488101374218259e-39 .00
9 0 0 -1 16 182 1090 0 ?184 79 179 180 0 0 1 30 183 448 0 79 180 185 0 +.1986775
 -.0020675 .009 0 0 -1 16 79 384 0 ?33 132 182 183 0 0 1 30 185 449 0 132 183 13
3 0 +.1981775 -.0025675 .009 0 0 -1 16 132 385 0 ?135 125 79 185 0 0 1 30 133 45
0 0 125 185 186 0 +.1459775 -.0025675 .009 0 0 -1 30 186 451 0 131 133 187 0 +.1
454775 -.0020675 .009 0 0 -1 16 131 387 0 ?70 188 125 186 0 0 1 30 187 452 0 188
 186 189 0 +.1454775 .0140125 .009 0 0 -1 16 188 388 0 ?67 190 131 187 0 0 1 30
 189 453 0 190 187 191 0 +.1459775 .0145125 .009 0 0 -1 16 190 389 0 ?64 192 188
 189 0 0 1 30 191 454 0 192 189 193 0 +.1538775 .0145125 .009 0 0 -1 16 192 390
 0 ?194 195 190 191 0 0 1 30 193 455 0 195 191 196 0 +.1543775 .0150125 .009 0 0
 -1 16 195 391 0 ?197 198 192 193 0 0 1 30 196 456 0 198 193 199 0 +.1543775 .01
69225 .009 0 0 -1 16 198 392 0 ?200 201 195 196 0 0 1 30 199 457 0 201 196 202 0
 +.1548775 .0174225 .009 0 0 -1 16 201 393 0 ?203 204 198 199 0 0 1 30 202 458 0
 204 199 205 0 +.1981775 .0174225 .009 0 0 -1 16 204 394 0 ?206 207 201 202 0 0
 1 30 205 459 0 207 202 208 0 +.1986775 .0169225 .009 0 0 -1 16 207 395 0 ?209 2
10 204 205 0 0 1 30 208 460 0 210 205 211 0 +.1986775 .0105425 .009 0 0 -1 16 21
0 1097 0 ?212 213 207 208 0 0 1 30 211 461 0 213 208 214 0 +.1996775 .0101689500
093338 .009 0 0 -1 16 213 1100 0 ?215 20 210 211 0 0 1 30 214 462 0 20 211 216 0
 +.200377364581526 .0100425 .009 0 0 -1 16 20 1107 0 ?217 9 213 214 0 0 1 133 25
5 216 915 0 218 214 219 0 +219 .002 0 .005975 .1454775 0 .005975 .002 .1454775 1
6 218 657 0 ?220 221 222 216 0 0 1 30 219 916 0 1 216 223 224 +0 0 .005975 1 0 0
 133 223 917 0 222 219 225 0 +226 .002 .011945 .005975 .002 0 .005975 -.011945 0
 141 255 224 216 224 224 219 16 222 654 0 ?227 218 228 223 0 0 1 133 225 922 0 2
28 223 229 0 +229 .002 .011945 .005975 .1454775 .011945 .005975 .002 .1454775 30
 226 728 0 1 230 231 232 +.002 0 .005975 0 -1 0 31 230 730 0 233 234 226 0 +.005
5 .0059725 .005975 0 0 1 1 0 0 .0015 30 231 726 0 221 226 235 0 +.1454775 0 .005
975 0 1 0 141 232 223 232 232 226 16 221 660 0 ?236 237 218 231 0 0 1 31 235 725
 0 238 231 239 0 +.0055 .0059725 -.005975 0 0 1 1 0 0 .0015 16 238 663 0 ?240 27
 241 235 0 0 1 30 239 723 0 1 235 242 243 +.002 0 -.005975 0 -1 0 30 242 721 0 2
44 239 245 0 +.1454775 0 -.005975 0 1 0 141 243 246 243 243 239 133 246 924 0 24
7 229 248 0 +239 .002 .011945 -.005975 .002 0 -.005975 -.011945 0 16 247 639 0 ?
249 250 27 246 0 0 1 30 229 923 0 1 225 246 251 +0 .011945 .005975 1 0 0 133 248
 925 0 27 246 252 0 +252 .002 .011945 -.005975 .1454775 .011945 -.005975 .002 .1
454775 16 27 666 0 ?21 247 238 248 0 0 1 30 252 926 0 1 248 253 254 +0 .011945 -
.005975 1 0 0 133 253 927 0 250 252 16 0 +16 .002 0 -.005975 .1454775 0 -.005975
 .002 .1454775 141 254 248 254 254 252 16 250 643 0 ?255 244 247 253 0 0 1 30 16
 928 0 1 253 6 256 +0 0 -.005975 1 0 0 141 256 253 256 256 16 17 255 0 257 258 2
59 88 260 250 0 261 +16 244 650 0 ?262 233 250 242 0 0 1 17 262 0 263 264 261 10
 24 244 0 0 +16 233 647 0 ?265 228 244 230 0 0 1 17 265 0 266 265 265 0 267 233
 0 0 +16 228 635 0 ?268 222 233 225 0 0 1 17 268 0 269 28 270 47 271 228 0 264 +
15 269 680 0 26 272 0 17 28 0 269 26 268 10 264 237 0 262 +17 270 0 269 268 273
 274 275 276 0 271 +18 47 674 0 236 43 277 89 ?1 17 271 0 278 227 236 274 268 22
8 0 0 -17 264 0 263 279 262 47 28 237 0 0 -15 263 628 0 279 280 281 17 279 0 263
 261 264 277 236 221 0 0 -16 237 638 0 ?28 146 221 245 0 0 1 16 146 653 0 ?261 1
43 237 282 0 0 1 30 245 720 0 237 242 282 0 +.1454775 .011945 .005975 0 0 -1 30
 282 719 0 146 245 283 0 +.1454775 0 .005975 0 0 -1 30 283 23 0 36 282 284 0 +.1
986775 0 .009 0 1 0 16 36 22 0 ?35 285 168 283 0 0 1 31 284 27 0 285 283 286 0 +
.1981775 .0169225 .009 0 0 1 1 0 0 5e-4 16 285 26 0 ?84 287 36 284 0 0 1 30 286
 31 0 287 284 288 0 +-2791983349672595e-33 .0174225 .009 -1 -1602515913142545e-3
1 0 16 287 30 0 ?92 289 285 286 0 0 1 31 288 35 0 289 286 290 0 +.1548775 .01692
25 .009 0 0 1 1 0 0 5e-4 16 289 34 0 ?95 291 287 288 0 0 1 30 290 39 0 291 288 2
92 0 +.1543775 0 .009 0 -1 0 16 291 38 0 ?98 293 289 290 0 0 1 31 292 43 0 293 2
90 294 0 -.1538775 .0150125 .009 0 0 1 1 0 0 5e-4 16 293 42 0 ?101 295 291 292 0
 0 1 30 294 47 0 295 292 296 0 +318673094241943e-32 .0145125 .009 -1 21958525012
36465e-31 0 16 295 46 0 ?104 297 293 294 0 0 1 31 296 51 0 297 294 141 0 -.14597
75 .0140125 .009 0 0 1 1 0 0 5e-4 16 297 50 0 ?298 121 295 296 0 0 1 30 141 55 0
 121 296 123 0 +.1454775 0 .009 0 1 0 16 121 54 0 ?120 113 297 141 0 0 1 17 120
 0 281 67 109 105 111 121 0 0 +15 281 415 0 299 280 0 17 67 0 281 299 120 65 107
 188 0 300 +17 109 0 281 120 299 108 70 131 0 112 -17 299 0 281 109 67 68 162 16
0 0 0 -17 70 0 122 73 112 68 109 131 0 127 +17 127 0 301 162 130 68 73 128 0 299
 -15 301 209 0 302 303 0 17 162 0 301 159 127 65 299 160 0 0 +17 130 0 301 127 3
04 71 75 164 0 0 -17 304 0 301 130 170 74 80 166 0 0 -17 75 0 129 118 124 74 130
 164 0 135 +17 135 0 305 80 136 74 118 132 0 304 +15 305 409 0 80 306 0 17 80 0
 305 78 135 76 304 166 0 170 +17 136 0 305 135 78 30 37 137 0 0 -17 78 0 305 136
 80 22 33 79 0 0 -17 37 0 83 35 38 22 136 137 0 78 +17 170 0 301 304 302 76 45 1
68 0 0 +17 302 0 301 170 307 43 49 143 0 0 -17 45 0 32 34 33 43 170 168 0 209 -1
5 32 1498 0 45 308 309 17 34 0 32 29 45 77 209 207 0 310 -17 209 0 311 49 310 43
 34 207 0 302 +15 311 429 0 49 312 0 17 49 0 311 313 209 46 302 143 0 206 +17 31
0 0 311 209 313 77 84 285 0 0 -17 313 0 311 310 49 81 206 204 0 314 -17 84 0 83
 92 35 81 310 285 0 313 +17 92 0 83 95 84 85 314 287 0 315 +17 95 0 83 98 92 93
 316 289 0 317 +17 314 0 318 206 315 81 92 287 0 0 -17 315 0 318 314 52 85 203 2
01 0 316 -15 318 427 0 52 319 0 17 52 0 318 315 206 50 307 145 0 203 +17 203 0 3
20 55 316 50 315 201 0 321 +17 316 0 320 203 317 85 95 289 0 0 -15 320 425 0 55
 322 0 17 317 0 320 316 55 93 200 198 0 323 -17 55 0 320 317 203 53 321 148 0 20
0 +17 200 0 324 58 323 53 317 198 0 325 +17 323 0 324 200 326 93 98 291 0 0 -15
 324 423 0 58 327 0 17 326 0 324 323 58 96 197 195 0 328 -17 98 0 83 101 95 96 3
23 291 0 326 +17 101 0 83 104 98 99 328 293 0 329 +17 104 0 83 119 101 102 330 2
95 0 331 +17 328 0 332 197 329 96 101 293 0 0 -17 329 0 332 328 61 99 194 192 0
 330 -15 332 421 0 61 333 0 17 61 0 332 329 197 59 334 152 0 194 +17 194 0 335 1
56 330 59 329 192 0 336 +17 330 0 335 194 331 99 104 295 0 0 -15 335 419 0 156 3
37 0 17 331 0 335 330 156 102 64 190 0 298 -17 156 0 335 331 194 62 336 154 0 15
9 +17 64 0 338 300 298 62 331 190 0 156 +17 298 0 338 64 107 102 119 297 0 0 +15
 338 417 0 300 339 0 17 107 0 338 298 300 105 67 188 0 119 -17 119 0 83 111 104
 105 298 297 0 120 -17 300 0 338 107 64 65 159 157 0 162 -17 159 0 301 336 162 6
2 300 157 0 0 +17 336 0 301 334 159 59 156 154 0 0 -17 334 0 301 325 336 56 61 1
52 0 0 -17 325 0 301 321 334 53 58 150 0 0 -17 321 0 301 307 325 50 55 148 0 0 -
17 58 0 324 326 200 56 325 150 0 197 +17 197 0 332 61 328 56 326 195 0 334 +17 3
07 0 301 302 321 46 52 145 0 0 -14 255 339 418 340 ?280 337 338 4 341 +0 0 280 3
37 18 81 255 1 340 1690 342 339 343 0 0 344 345 14 280 416 344 ?126 339 263 4 34
6 +0 0 126 339 18 14 337 420 347 ?339 333 335 4 348 -0 0 339 333 18 51 341 472 0
 339 346 348 0 +.1459775 .0140125 .009 0 0 -1 5e-4 -1 0 0 13 18 155 0 0 0 0 0 0
 8 12 14 12 1357 349 ?350 0 351 4 15 -0 0 350 0 18 81 1 349 1693 342 12 352 0 34
7 353 354 14 350 1353 353 ?355 12 356 4 357 -0 0 355 12 18 15 351 1356 0 358 12
 0 50 255 15 482 0 12 357 5 0 +-890874652784391e-32 .01004249999999982 .009 8871
0445883436e-29 -1 0 1 88710445883436e-29 0 51 357 481 0 350 359 15 0 +.200377364
581526 .0120425 .009 0 0 -1 .002 -1 0 0 50 359 480 0 355 360 357 0 +.02778449199
23341 .0743795815461846 .009 -.3499322907630235 -.936774995333107 0 .93677499533
3107 -.3499322907630235 0 14 355 1346 361 ?362 350 363 4 359 -0 0 362 350 18 51
 360 478 0 312 364 359 0 -.1981775 .0169225 .009 0 0 -1 5e-4 -1 0 0 14 312 430 3
65 ?319 366 311 4 360 -0 0 319 366 18 50 364 477 0 319 367 360 0 +-2791983349672
595e-33 .0174225 .009 1602515913142545e-31 -1 0 1 1602515913142545e-31 0 14 319
 428 368 ?322 312 318 4 364 -0 0 322 312 18 51 367 476 0 322 369 364 0 -.1548775
 .0169225 .009 0 0 -1 5e-4 -1 0 0 14 322 426 370 ?327 319 320 4 367 -0 0 327 319
 18 50 369 475 0 327 371 367 0 +.1543775 0 .009 1 0 0 0 0 -1 14 327 424 372 ?333
 322 324 4 369 -0 0 333 322 18 51 371 474 0 333 348 369 0 +.1538775 .0150125 .00
9 0 0 -1 5e-4 -1 0 0 14 333 422 373 ?337 327 332 4 371 -0 0 337 327 18 50 348 47
3 0 337 341 371 0 +318673094241943e-32 .0145125 .009 -2195852501236465e-31 -1 0
 1 -2195852501236465e-31 0 81 1 373 1700 342 333 374 0 372 375 376 80 255 1 342
 377 378 9000 1 1 1 1 1 1 1 1 0 FFFFTFTFFFFFFF1 81 1 374 1577 379 333 0 373 380
 381 382 81 1 372 1699 342 327 380 0 370 373 383 81 1 375 1701 342 126 384 0 373
 385 386 82 255 1 376 -480902802 14 126 414 375 ?134 280 122 4 387 -0 0 134 280
 18 81 1 384 1581 379 126 0 375 388 389 390 81 1 385 1702 342 134 389 0 375 391
 392 82 1 386 -481820306 14 134 412 385 ?306 126 129 4 393 -0 0 306 126 18 81 1
 389 1582 379 134 0 385 384 394 395 81 1 391 1703 342 306 394 0 385 396 397 82 1
 392 -482082450 14 306 410 391 ?308 134 305 4 398 -0 0 308 134 18 81 1 394 1583
 379 306 0 391 389 399 400 81 1 396 1704 342 272 401 0 391 402 403 82 1 397 -482
410130 14 272 677 396 ?404 303 269 4 405 +0 0 404 303 18 81 1 401 1587 379 272 0
 396 406 407 408 81 1 402 1705 342 404 407 0 396 409 410 82 1 403 -1327169111 14
 404 685 402 ?411 272 257 4 412 -0 0 411 272 18 81 1 407 1588 379 404 0 402 401
 413 414 81 1 409 1706 342 415 416 0 402 417 418 82 1 410 -1327693399 14 415 698
 409 ?419 411 420 4 421 +0 0 419 411 18 81 1 416 1590 379 415 0 409 413 422 423
 81 1 417 1707 342 419 422 0 409 424 425 82 1 418 -1336802903 14 419 703 417 ?42
6 415 427 4 428 -0 0 426 415 18 81 1 422 1591 379 419 0 417 416 429 430 81 1 424
 1708 342 426 429 0 417 431 432 82 1 425 -1331953239 14 426 826 424 ?433 419 434
 4 435 +436 436 433 419 18 81 1 429 1592 379 426 0 424 422 437 438 81 1 431 1709
 342 433 437 0 424 439 440 82 1 432 -1291255383 14 433 830 431 ?436 426 441 4 44
2 +0 0 436 426 18 81 1 437 1593 379 433 0 431 429 443 444 81 1 439 1710 342 436
 443 0 431 445 446 82 1 440 -1297350231 14 436 838 439 ?447 433 448 4 435 +426 4
26 447 433 18 81 1 443 1594 379 436 0 439 437 449 450 81 1 445 1711 342 447 449
 0 439 451 452 82 1 446 -1297808983 14 447 846 445 ?453 436 454 4 455 +0 0 453 4
36 18 81 1 449 1595 379 447 0 445 443 456 457 81 1 451 1712 342 458 459 0 445 46
0 461 82 1 452 -1298071127 14 458 854 451 ?462 453 463 4 464 +0 0 462 453 18 81
 1 459 1597 379 458 0 451 456 465 466 81 1 460 1713 342 462 465 0 451 467 468 82
 1 461 -1308687959 14 462 858 460 ?469 458 470 4 471 -0 0 469 458 18 81 1 465 15
98 379 462 0 460 459 472 473 81 1 467 1714 342 366 474 0 460 475 476 82 1 468 -1
303314007 14 366 972 467 ?312 477 478 4 479 +411 411 312 477 18 81 1 474 1572 37
9 366 0 467 480 481 482 81 1 475 1715 342 411 413 0 467 483 484 82 1 476 -127093
9220 14 411 689 475 ?415 404 485 4 479 +366 366 415 404 18 81 1 413 1589 379 411
 0 475 407 416 486 81 1 483 1716 342 453 456 0 475 487 488 82 1 484 -1326906964
 14 453 850 483 ?458 447 489 4 490 +0 0 458 447 18 81 1 456 1596 379 453 0 483 4
49 459 491 81 1 487 1717 342 469 472 0 483 492 493 82 1 488 -1298202196 14 469 9
96 487 ?494 462 495 4 496 -0 0 494 462 18 81 1 472 1599 379 469 0 487 465 497 49
8 81 1 492 1718 342 494 497 0 487 499 500 82 1 493 -1274543700 14 494 1003 492 ?
501 469 502 4 503 +0 0 501 469 18 81 1 497 1600 379 494 0 492 472 504 505 81 1 4
99 1719 342 115 506 0 492 507 508 82 1 500 -1276509780 14 115 1 499 ?303 308 83
 4 509 +0 0 303 308 18 81 1 506 1585 379 115 0 499 399 406 510 81 1 507 1720 342
 501 504 0 499 511 512 82 1 508 -516882002 14 501 1176 507 ?513 494 514 4 515 +0
 0 513 494 18 81 1 504 1601 379 501 0 507 497 516 517 81 1 511 1721 342 362 518
 0 507 519 520 82 1 512 -1228471890 14 362 1339 511 ?521 355 522 4 523 -0 0 521
 355 18 81 1 518 1567 379 362 0 511 524 525 526 81 1 519 1722 342 521 525 0 511
 527 528 82 1 520 -873659980 14 521 1335 519 ?529 362 530 4 531 -0 0 529 362 18
 81 1 525 1568 379 521 0 519 518 532 533 81 1 527 1723 342 529 532 0 519 534 535
 82 1 528 -874053196 14 529 1328 527 ?14 521 536 4 537 -0 0 14 521 18 81 1 532 1
569 379 529 0 527 525 538 539 81 1 534 1724 342 14 538 0 527 540 541 82 1 535 -8
74774092 14 14 1321 534 ?477 529 542 4 5 +0 0 477 529 18 81 1 538 1570 379 14 0
 534 532 480 543 81 1 540 1725 342 477 480 0 534 544 545 82 1 541 -875494988 14
 477 1316 540 ?366 14 546 4 547 -0 0 366 14 18 81 1 480 1571 379 477 0 540 538 4
74 548 81 1 544 1726 342 308 399 0 540 549 550 82 1 545 -875953740 14 308 408 54
4 ?115 306 32 4 551 +0 0 115 306 18 81 1 399 1584 379 308 0 544 394 506 552 81 1
 549 1727 342 303 406 0 544 553 554 82 1 550 -482606668 14 303 206 549 ?272 115
 301 4 555 -0 0 272 115 18 81 1 406 1586 379 303 0 549 506 401 556 81 1 553 1728
 342 513 516 0 549 0 557 82 1 554 -501415500 14 513 1418 553 ?0 501 558 4 559 +0
 0 0 501 18 81 1 516 1602 379 513 0 553 504 0 560 82 1 557 -877526604 80 1 379 0
 561 8001 0 0 0 0 3 5 0 0 0 FFFFTFTFFFFFFF2 83 255 3 560 .792156862745098 .81960
7843137255 .933333333333333 79 255 15 561 SDL/TYSA_COLOUR15 558 1420 0 562 513 5
63 50 559 1455 0 513 0 515 0 +0 0 -.004 0 0 -1 -1 0 0 50 515 1213 0 501 559 503
 0 +0 0 .004 0 0 1 1 0 0 50 503 1013 0 494 515 496 0 +.138 .0059725 336777869765
475e-35 -1 0 0 0 0 1 51 496 1011 0 469 503 464 564 +.138 .0059725 33677786976547
5e-35 -1 0 0 .00445 0 0 1 50 464 871 0 458 496 471 0 +0 0 .006 0 0 1 1 0 0 141 5
64 565 566 566 496 38 255 565 1015 0 567 568 569 0 +479 496 570 571 571 141 566
 569 564 564 496 38 569 1014 0 572 565 573 0 +479 496 574 575 575 16 572 980 0 ?
576 577 567 569 0 0 1 31 573 897 0 578 569 579 0 -.001 .001 .006 0 0 1 1 0 0 .00
1 51 479 710 0 411 405 509 580 -.0055 .0059725 .005975 0 0 -1 .0015 -1 0 0 40 25
5 20 574 0 1 20 917229316957832e-19 .356586209229101 ??.004 .0059725 .00445 .004
07927480125401 .00549131405917446 .004423907785019015 .004305900180560345 .00506
468635105316 .004356417608400945 .00466739284151997 .00472479598075192 .00427150
2625581795 .00513724154691366 .00451702540224351 .004205245973220305 .0056355713
213195 .00447863909053229 .004191763302378165 .00609592217562703 .00459595477350
145 .00423173997776376 .00649937632430053 .00485390849170595 .004307116557230885
 .00681335161663767 .00524785696299818 .004390602745515105 .00698070676343291 .0
0573269282595379 .00444353378734493 .00697851749081099 .00622545459941652 .00444
2804741448135 .00682491011919597 .00667578740643647 .00439407405763124 .00653143
801208469 .00706159853880481 .004314668512501655 .0061092042051559 .007343218875
78028 .00423363080152009 .00561367662239761 .00746818633928383 .0041911123075479
3 .00512983757142071 .00742610922412741 .004205891133105055 .00469587544079028 .
0072387478798702 .00426604222983367 .004330260559554565 .00691149395177306 .0043
4980348504776 .004082467618793475 .00646301192465724 .004422883454463735 .004 .0
059725 .00445 41 255 1 575 H.004 .0059725 .00445 50 405 711 0 272 412 479 0 +0 .
011945 .005975 0 1 0 0 0 1 50 509 2 0 115 479 555 0 +0 0 .009 0 0 1 1 0 0 141 58
0 565 581 581 479 141 581 569 580 580 479 50 555 337 0 303 509 547 0 +0 0 -.009
 0 0 1 1 0 0 51 547 463 0 477 555 537 0 -.2042883436295995 .00665334362959937 .0
09 0 0 -1 .003389156370400635 -1 0 0 50 537 464 0 529 547 531 0 +.2076775 0 .009
 -1 0 0 0 0 1 51 531 465 0 521 537 523 0 -.2042883436295995 .00338915637040064 .
009 0 0 -1 .003389156370400635 -1 0 0 50 523 466 0 362 531 551 0 +0 0 .009 0 1 0
 0 0 1 50 551 467 0 308 523 398 0 +.1986775 2667186638149505e-30 .009 1 13424704
04625338e-29 0 -1342470404625338e-29 1 0 51 398 468 0 306 551 393 0 -.1981775 -.
0020675 .009 0 0 -1 .000500000000000014 -1 0 0 50 393 469 0 134 398 387 0 +-3199
642618225875e-34 -.0025675 .009 12462093936615e-29 1 0 -1 12462093936615e-29 0 5
1 387 470 0 126 393 346 0 -.1459775 -.0020675 .009 0 0 -1 5e-4 -1 0 0 50 346 471
 0 280 387 341 0 +.1454775 0 .009 -1 0 0 0 0 1 50 412 713 0 404 428 405 0 +0 0 .
005975 0 1 0 0 0 1 50 428 715 0 419 421 412 0 +0 0 -.005975 0 0 1 1 0 0 50 421 7
16 0 415 442 428 0 +0 0 .005975 0 0 1 1 0 0 51 442 864 0 433 435 421 0 +.001 .00
1 .006 0 0 -1 .001 -1 0 0 50 435 866 0 436 455 442 0 +.002 0 .006 1 0 0 0 0 -1 5
1 455 868 0 447 490 435 0 +.001 .010945 .006 0 0 -1 .001 -1 0 0 50 490 869 0 453
 471 455 0 +0 0 .006 -1 0 0 0 0 1 50 471 870 0 462 464 490 0 +0 0 -.006 0 0 1 1
 0 0 16 578 764 0 ?582 583 584 573 0 0 1 30 579 896 0 583 573 585 0 +0 0 .006 1
 0 0 16 583 788 0 ?586 587 578 579 0 0 1 30 585 895 0 587 579 588 0 +.002 0 .006
 0 -1 0 16 587 760 0 ?589 590 583 585 0 0 1 30 588 894 0 590 585 591 0 +0 .01194
5 .006 1 0 0 16 590 774 0 ?273 592 587 588 0 0 1 31 591 893 0 592 588 593 0 -.00
1 .010945 .006 0 0 1 1 0 0 .001 16 592 780 0 ?594 595 590 591 0 0 1 30 593 892 0
 595 591 596 0 +0 0 .006 0 1 0 16 595 784 0 ?597 598 592 593 0 0 1 31 596 891 0
 577 593 599 0 -.001 .001 -.006 0 0 1 1 0 0 .001 16 577 791 0 ?600 601 572 596 0
 0 1 30 599 890 0 601 596 602 0 +0 0 -.006 1 0 0 16 601 768 0 ?603 604 577 599 0
 0 1 30 602 889 0 604 599 605 0 +.002 0 -.006 0 -1 0 16 604 803 0 ?606 607 601 6
02 0 0 1 30 605 888 0 607 602 608 0 +0 .011945 -.006 1 0 0 16 607 800 0 ?609 610
 604 605 0 0 1 31 608 887 0 610 605 611 0 -.001 .010945 -.006 0 0 1 1 0 0 .001 1
6 610 797 0 ?612 584 607 608 0 0 1 30 611 886 0 584 608 613 0 +0 0 -.006 0 1 0 1
6 584 794 0 ?614 578 610 611 0 0 1 30 613 885 0 598 611 615 0 +0 .001 .006 0 0 -
1 16 598 767 0 ?616 617 595 613 0 0 1 30 615 884 0 617 613 618 0 +0 .010945 .006
 0 0 -1 16 617 787 0 ?619 620 598 615 0 0 1 30 618 883 0 620 615 621 0 +.001 .01
1945 .006 0 0 -1 16 620 783 0 ?622 623 617 618 0 0 1 30 621 882 0 1 618 624 625
 +.002 .011945 .006 0 0 -1 30 624 881 0 1 621 626 627 +.002 0 .006 0 0 -1 141 62
5 628 629 629 621 133 628 877 0 623 630 631 0 +621 .002 .011945 -.005975 .002 .0
11945 -.006 .011975 .012 141 629 630 625 625 621 133 630 878 0 276 626 628 0 +62
1 .002 .011945 .006 .002 .011945 .005975 0 250000000000007e-19 16 276 777 0 ?270
 632 623 630 0 0 1 30 626 880 0 241 624 630 0 +.001 0 .006 0 0 -1 16 241 771 0 ?
633 238 634 626 0 0 1 17 633 0 257 603 635 636 637 241 0 638 +16 634 763 0 ?639
 241 632 631 0 0 1 17 639 0 434 640 589 641 642 634 0 643 +16 632 773 0 ?644 634
 276 234 0 0 1 133 631 875 0 634 628 234 0 +624 .002 0 .006 .002 0 .005975 0 250
000000000007e-19 133 234 874 0 632 631 230 0 +624 .002 0 -.005975 .002 0 -.006 .
011975 .012 17 644 0 448 645 249 646 259 632 0 603 +15 448 841 0 647 436 0 17 64
5 0 448 647 644 648 606 604 0 609 -17 249 0 448 644 647 649 25 247 0 259 +18 646
 814 0 644 648 636 650 ?1 17 259 0 257 255 603 649 644 632 0 260 -17 603 0 257 2
59 633 646 638 601 0 606 +15 257 688 0 255 404 0 17 638 0 470 600 606 636 603 60
1 0 651 -17 606 0 470 638 609 646 645 604 0 0 +15 470 861 0 600 462 0 17 609 0 4
70 606 612 648 652 607 0 0 +17 612 0 470 609 614 653 654 610 0 0 +18 648 816 0 6
55 653 646 656 ?1 17 652 0 269 657 655 653 609 607 0 612 -17 657 0 269 273 652 6
58 622 620 0 659 -17 655 0 269 652 26 648 647 623 0 645 +18 653 818 0 622 660 64
8 661 ?1 17 622 0 454 654 594 653 657 620 0 652 +18 660 820 0 619 662 653 663 ?1
 29 661 904 0 653 656 663 .001 .011945 -.006 29 656 905 0 648 650 661 .002 .0119
45 -.006 29 663 903 0 660 661 664 0 .010945 -.006 29 664 902 0 662 663 665 0 .00
1 -.006 18 662 811 0 616 666 660 664 ?1 29 665 901 0 274 664 667 .002 .011945 .0
05975 18 274 808 0 640 668 669 665 1e-8 1 29 667 900 0 668 665 670 .002 .011945
 -.005975 18 668 806 0 647 649 274 667 1e-8 1 29 670 898 0 649 667 671 .002 0 -.
005975 18 649 813 0 249 88 668 670 1e-8 1 29 671 737 0 641 670 672 .002 0 .00597
5 18 641 672 0 639 277 88 671 1e-8 1 29 672 736 0 277 671 89 .1454775 0 .005975
 18 277 673 0 220 47 641 672 ?1 29 89 735 0 47 672 87 .1454775 .011945 .005975 1
7 220 0 278 236 227 277 643 218 0 258 +15 278 702 0 271 415 0 17 236 0 278 271 2
20 47 279 221 0 268 +17 227 0 278 220 271 641 640 222 0 0 +17 643 0 257 642 258
 641 220 218 0 227 -17 258 0 257 643 255 277 261 146 0 279 -17 261 0 263 262 279
 88 258 146 0 0 +18 88 675 0 24 641 649 87 ?1 17 24 0 23 260 21 88 262 244 0 255
 -15 23 707 0 21 419 0 17 260 0 23 25 24 649 255 250 0 0 -17 25 0 23 21 260 668
 249 247 0 26 -17 26 0 269 655 28 668 21 27 0 0 -17 642 0 257 635 643 673 639 63
4 0 589 -17 635 0 257 633 642 666 586 583 0 674 -18 673 821 0 586 675 666 676 ?1
 17 589 0 434 639 275 673 677 587 0 0 +15 434 829 0 640 426 0 17 275 0 434 589 6
40 675 270 276 0 677 -17 677 0 463 659 586 675 589 587 0 273 -15 463 857 0 674 4
58 0 17 659 0 463 678 677 658 273 590 0 594 -17 586 0 463 677 674 673 635 583 0
 642 +18 675 809 0 275 658 673 679 ?1 17 273 0 269 270 657 675 659 590 0 0 +18 6
58 815 0 657 680 675 681 ?1 29 679 911 0 675 676 681 .002 .011945 .006 29 676 91
2 0 673 682 679 .002 0 .006 29 681 910 0 658 679 683 .001 .011945 .006 29 683 90
9 0 680 681 684 0 .010945 .006 18 680 817 0 685 669 658 683 ?1 29 684 908 0 669
 683 686 0 .001 .006 18 669 819 0 687 274 680 684 ?1 29 686 907 0 636 684 650 .0
01 0 -.006 18 636 812 0 633 646 688 686 ?1 29 650 906 0 646 686 656 .002 0 -.006
 18 688 1157 0 689 636 690 691 ?1 17 689 0 692 693 694 688 695 696 0 697 +18 690
 1158 0 694 688 698 699 ?1 29 691 1233 0 688 699 682 .1996775 .0101689500093338
 .004 29 699 1234 0 690 700 691 .200377364581526 .0100425 .004 29 682 913 0 666
 691 676 .001 0 .006 18 666 810 0 637 673 662 682 ?1 17 637 0 441 582 651 666 63
3 241 0 635 -15 441 833 0 651 433 0 17 582 0 441 616 637 669 674 578 0 701 +17 6
51 0 441 637 616 636 600 577 0 0 -17 616 0 441 651 582 662 687 598 0 600 +17 600
 0 470 614 638 662 651 577 0 702 +17 614 0 470 612 600 660 702 584 0 0 +17 702 0
 703 687 619 662 614 584 0 0 -15 703 853 0 702 453 0 17 687 0 703 597 702 669 61
6 598 0 582 -17 619 0 703 702 597 660 685 617 0 654 +17 597 0 703 619 687 680 70
1 595 0 0 +17 685 0 454 594 654 680 619 617 0 678 -17 654 0 454 685 622 660 612
 610 0 614 -15 454 849 0 654 447 0 17 594 0 454 622 685 658 678 592 0 0 +17 678
 0 463 701 659 680 594 592 0 597 -17 701 0 463 674 678 669 597 595 0 0 -17 674 0
 463 586 701 666 582 578 0 0 -29 700 1235 0 698 704 699 .2042883436295995 433680
868994202e-32 .004 18 698 1170 0 705 690 706 700 ?1 29 704 1236 0 706 707 700 .2
076775 .00338915637040064 .004 18 706 1171 0 708 698 709 704 ?1 29 707 1237 0 70
9 710 704 .2042883436295995 .0100425 .004 18 709 1159 0 19 706 711 707 ?1 29 710
 1238 0 711 712 707 .2076775 .00665334362959937 .004 18 711 1172 0 713 709 714 7
10 ?1 29 712 1245 0 714 715 710 .1986775 .0105425 .004 18 714 1169 0 693 711 716
 712 ?1 29 715 1248 0 716 717 712 .1986775 3176363423229605e-39 .004 18 716 1160
 0 718 714 719 715 ?1 29 717 1476 0 719 720 715 .1996775 .0101689500093338 -.004
 18 719 1411 0 721 716 722 717 ?1 29 720 1477 0 722 723 717 .200377364581526 .01
00425 -.004 18 722 1412 0 724 719 725 720 ?1 29 723 1478 0 725 726 720 .20428834
36295995 433680868994202e-32 -.004 18 725 1400 0 727 722 728 723 ?1 29 726 1479
 0 728 729 723 .2076775 .00338915637040064 -.004 18 728 1401 0 730 725 731 726 ?
1 29 729 1480 0 731 732 726 .2076775 .00665334362959937 -.004 18 731 1402 0 733
 728 734 729 ?1 29 732 1481 0 734 735 729 .2042883436295995 .0100425 -.004 18 73
4 1413 0 736 731 737 732 ?1 29 735 1488 0 737 738 732 .1986775 0 -.004 18 737 14
14 0 739 734 740 735 ?1 29 738 1491 0 740 0 735 .1986775 .0105425 -.004 18 740 1
399 0 741 737 0 738 ?1 17 741 0 563 721 739 740 742 743 0 744 +15 563 1421 0 721
 513 0 17 721 0 563 724 741 719 744 745 0 746 +17 739 0 563 741 727 737 747 748
 0 742 +17 742 0 309 749 212 737 741 743 0 184 -16 743 1363 0 ?741 750 0 751 0 0
 1 17 744 0 363 752 215 740 721 745 0 212 -15 363 1345 0 744 355 0 17 752 0 363
 697 744 714 212 210 0 0 -17 215 0 363 744 697 719 753 213 0 0 +16 745 1380 0 ?7
21 754 755 756 0 0 1 17 212 0 309 742 757 740 752 210 0 0 +15 309 407 0 742 308
 0 17 757 0 309 212 749 714 718 758 0 752 -17 749 0 309 757 742 716 184 182 0 0
 -17 718 0 692 705 693 716 757 758 0 759 +16 758 1121 0 ?718 760 754 761 0 0 1 1
6 760 1142 0 ?713 762 758 763 0 0 1 16 754 1360 0 ?764 758 745 765 0 0 1 30 761
 1232 0 758 765 763 0 +.1986775 3176363423229605e-39 .004 0 -1 0 31 765 1456 0 7
54 756 761 0 +.2029275 .00502125 -.004 0 0 -1 -1 0 0 .002124999999999975 30 763
 1220 0 760 761 766 0 +.2076775 0 .004 0 1 0 31 766 1219 0 762 763 767 0 +.20428
83436295995 .00338915637040064 .004 0 0 1 1 0 0 .003389156370400635 16 762 1141
 0 ?708 768 760 766 0 0 1 30 767 1218 0 768 766 769 0 +0 0 .004 1 0 0 16 768 114
0 0 ?705 770 762 767 0 0 1 30 769 1217 0 770 767 771 0 +-890874652784391e-32 .01
004249999999982 .004 -1 -88710445883436e-29 0 16 770 1144 0 ?694 696 768 769 0 0
 1 31 771 1216 0 696 769 772 0 -.200377364581526 .0120425 .004 0 0 1 1 0 0 .002
 16 696 1138 0 ?689 773 770 771 0 0 1 30 772 1215 0 773 771 774 0 +.027784491992
3341 .0743795815461846 .004 -.936774995333107 .3499322907630235 0 16 773 1139 0
 ?693 775 696 772 0 0 1 31 774 1214 0 775 772 776 0 +.2029275 .00502125 .004 0 0
 1 1 0 0 .002124999999999975 16 775 1118 0 ?777 778 773 774 0 0 1 31 776 1017 0
 779 774 568 0 +.138 .0059725 336777869765475e-35 -1 0 0 0 0 1 .00445 16 779 982
 0 ?780 567 778 776 0 0 1 31 568 1016 0 778 776 565 0 +0 .0059725 33677786976547
5e-35 -1 0 0 0 0 1 .00445 16 778 985 0 ?781 779 775 568 0 0 1 17 781 0 782 781 7
81 0 783 778 0 0 +15 782 1002 0 781 469 0 17 783 0 489 783 783 0 781 778 0 0 -15
 489 965 0 783 453 703 17 780 0 502 780 780 0 784 779 0 0 +16 567 981 0 ?785 572
 779 565 0 0 1 17 785 0 786 785 785 0 787 567 0 0 +15 786 1000 0 785 469 788 17
 787 0 485 787 787 0 785 567 0 0 -15 485 971 0 787 411 789 15 789 693 0 790 411
 0 17 790 0 789 790 790 0 240 238 0 0 -17 240 0 427 240 240 0 790 238 0 0 +15 42
7 706 0 240 419 23 15 788 1001 0 784 469 782 17 784 0 788 784 784 0 780 779 0 0
 -15 502 1005 0 780 494 0 17 777 0 542 777 777 0 791 775 0 0 +15 542 1071 0 777
 14 792 17 791 0 514 791 791 0 777 775 0 0 -15 514 1178 0 791 501 692 15 692 117
9 0 693 501 0 17 693 0 692 718 689 714 697 773 0 757 +17 697 0 363 215 752 688 6
93 773 0 753 -17 753 0 356 695 746 688 215 213 0 0 -15 356 1352 0 746 350 0 17 6
95 0 356 217 753 690 689 696 0 793 -17 746 0 356 753 217 719 724 755 0 215 -17 2
17 0 356 746 695 722 793 20 0 0 +17 724 0 563 736 721 722 746 755 0 358 +16 755
 1381 0 ?724 745 794 795 0 0 1 16 794 1382 0 ?736 755 748 796 0 0 1 31 795 1458
 0 755 796 756 0 -.200377364581526 .0120425 -.004 0 0 -1 -1 0 0 .002 30 796 1459
 0 794 797 795 0 +-890874652784391e-32 .01004249999999982 -.004 1 88710445883436
e-29 0 30 756 1457 0 745 795 765 0 +.0277844919923341 .0743795815461846 -.004 .9
36774995333107 -.3499322907630235 0 30 797 1460 0 748 798 796 0 +0 0 -.004 -1 0
 0 16 748 1386 0 ?739 794 799 797 0 0 1 31 798 1461 0 799 800 797 0 +.2042883436
295995 .00338915637040064 -.004 0 0 -1 -1 0 0 .003389156370400635 16 799 1385 0
 ?727 748 801 798 0 0 1 30 800 1462 0 801 802 798 0 +.2076775 0 -.004 0 -1 0 16
 801 1384 0 ?730 799 750 800 0 0 1 31 802 1463 0 750 751 800 0 +.204288343629599
5 .00665334362959937 -.004 0 0 -1 -1 0 0 .003389156370400635 16 750 1383 0 ?733
 801 743 802 0 0 1 30 751 1475 0 743 0 802 0 +.1986775 0 -.004 0 1 0 17 733 0 56
3 730 736 731 803 750 0 804 +17 730 0 563 727 733 728 804 801 0 805 +17 736 0 56
3 733 724 734 358 794 0 803 +17 803 0 546 806 175 734 733 750 0 172 -17 804 0 53
6 807 178 731 730 801 0 175 -15 536 1327 0 804 529 0 17 807 0 536 808 804 711 17
5 173 0 0 -17 178 0 536 804 808 728 809 176 0 0 +17 175 0 546 803 810 731 807 17
3 0 0 +15 546 1315 0 803 477 0 17 810 0 546 175 806 711 19 9 0 807 -17 806 0 546
 810 803 709 172 139 0 0 -17 19 0 692 694 713 709 810 9 0 811 +17 694 0 692 689
 19 690 811 770 0 695 +17 713 0 692 19 708 711 808 760 0 810 +17 811 0 351 172 7
93 709 694 770 0 806 -17 172 0 351 358 811 734 806 139 0 0 +17 793 0 351 811 358
 690 217 20 0 0 -17 358 0 351 793 172 722 736 794 0 217 -17 708 0 692 713 705 70
6 812 762 0 808 +17 808 0 536 178 807 706 713 760 0 809 -17 809 0 530 812 805 70
6 178 176 0 0 -15 530 1334 0 805 521 0 17 812 0 530 181 809 698 708 762 0 813 -1
7 805 0 530 809 181 728 727 799 0 178 -17 181 0 530 805 812 725 813 179 0 0 +17
 727 0 563 739 730 725 805 799 0 747 +17 747 0 522 813 184 725 739 748 0 181 -15
 522 1338 0 747 362 0 17 813 0 522 759 747 698 181 179 0 0 -17 184 0 522 747 759
 737 749 182 0 0 +17 759 0 522 184 813 716 705 768 0 749 -17 705 0 692 708 718 6
98 759 768 0 812 +15 792 1319 0 764 14 0 17 764 0 792 764 764 0 562 754 0 0 +17
 562 0 558 562 562 0 764 754 0 0 -17 640 0 434 275 639 274 227 222 0 270 -17 647
 0 448 249 645 668 655 623 0 25 -16 623 779 0 ?655 276 620 628 0 0 1 141 627 234
 814 814 624 141 814 631 627 627 624 17 576 0 495 576 576 0 815 572 0 0 +15 495
 999 0 576 469 786 17 815 0 478 815 815 0 576 572 0 0 -15 478 976 0 815 366 266
 15 266 692 0 265 366 0 40 20 570 0 1 20 917229316957835e-19 .3565862092291015 ?
?.004 .0059725 -.00445 .00407927480125401 .00645368594082554 -.00442390778501901
5 .004305900180560345 .00688031364894684 -.004356417608400945 .00466739284151997
 .00722020401924808 -.0042715026255818 .00513724154691366 .00742797459775649 -.0
04205245973220305 .0056355713213195 .00746636090946771 -.00419176330237817 .0060
9592217562703 .00734904522649855 -.004231739977763765 .00649937632430054 .007091
09150829405 -.00430711655723089 .00681335161663767 .00669714303700181 -.00439060
2745515105 .00698070676343291 .00621230717404621 -.00444353378734493 .0069785174
9081099 .00571954540058348 -.004442804741448135 .00682491011919597 .005269212593
56353 -.00439407405763124 .00653143801208469 .00488340146119519 -.00431466851250
165 .0061092042051559 .00460178112421971 -.00423363080152009 .00561367662239761
 .004476813660716165 -.00419111230754793 .00512983757142071 .00451889077587259 -
.004205891133105055 .00469587544079028 .0047062521201298 -.00426604222983367 .00
4330260559554565 .00503350604822694 -.004349803485047755 .004082467618793475 .00
548198807534276 -.004422883454463735 .004 .0059725 -.00445 41 1 571 H.004 .00597
25 -.00445 83 3 556 .792156862745098 .819607843137255 .933333333333333 83 3 552
 .792156862745098 .819607843137255 .933333333333333 83 3 548 .792156862745098 .8
19607843137255 .933333333333333 83 3 543 .792156862745098 .819607843137255 .9333
33333333333 83 3 539 .792156862745098 .819607843137255 .933333333333333 83 3 533
 .792156862745098 .819607843137255 .933333333333333 81 1 524 1566 379 355 0 361
 816 518 817 83 3 526 .792156862745098 .819607843137255 .933333333333333 81 1 36
1 1695 342 355 524 0 353 365 818 81 1 816 1565 379 350 0 353 352 524 819 83 3 81
7 .792156862745098 .819607843137255 .933333333333333 81 1 353 1694 342 350 816 0
 349 361 820 81 1 352 1564 379 12 0 349 0 816 821 83 3 819 .792156862745098 .819
607843137255 .933333333333333 83 3 821 .792156862745098 .819607843137255 .933333
333333333 82 1 820 -872218188 81 1 365 1696 342 312 481 0 361 368 822 82 1 818 -
872939084 81 1 481 1573 379 312 0 365 474 823 824 81 1 368 1697 342 319 823 0 36
5 370 825 82 1 822 -479854226 81 1 823 1574 379 319 0 368 481 826 827 81 1 370 1
698 342 322 826 0 368 372 828 82 1 825 -480116370 81 1 826 1575 379 322 0 370 82
3 380 829 82 1 828 -480378514 81 1 380 1576 379 327 0 372 826 374 830 83 3 829 .
792156862745098 .819607843137255 .933333333333333 83 3 830 .792156862745098 .819
607843137255 .933333333333333 83 3 827 .792156862745098 .819607843137255 .933333
333333333 83 3 824 .792156862745098 .819607843137255 .933333333333333 83 3 517 .
792156862745098 .819607843137255 .933333333333333 83 3 510 .792156862745098 .819
607843137255 .933333333333333 83 3 505 .792156862745098 .819607843137255 .933333
333333333 83 3 498 .792156862745098 .819607843137255 .933333333333333 83 3 491 .
792156862745098 .819607843137255 .933333333333333 83 3 486 .792156862745098 .819
607843137255 .933333333333333 83 3 482 .792156862745098 .819607843137255 .933333
333333333 83 3 473 .792156862745098 .819607843137255 .933333333333333 83 3 466 .
792156862745098 .819607843137255 .933333333333333 83 3 457 .792156862745098 .819
607843137255 .933333333333333 83 3 450 .792156862745098 .819607843137255 .933333
333333333 83 3 444 .792156862745098 .819607843137255 .933333333333333 83 3 438 .
792156862745098 .819607843137255 .933333333333333 83 3 430 .792156862745098 .819
607843137255 .933333333333333 83 3 423 .792156862745098 .819607843137255 .933333
333333333 15 420 701 0 267 415 278 17 267 0 420 267 267 0 265 233 0 0 -83 3 414
 .792156862745098 .819607843137255 .933333333333333 83 3 408 .792156862745098 .8
19607843137255 .933333333333333 83 3 400 .792156862745098 .819607843137255 .9333
33333333333 83 3 395 .792156862745098 .819607843137255 .933333333333333 81 1 388
 1580 379 280 0 344 343 384 831 83 3 390 .792156862745098 .819607843137255 .9333
33333333333 81 1 344 1691 342 280 388 0 340 347 832 81 1 343 1579 379 339 0 340
 381 388 833 83 3 831 .792156862745098 .819607843137255 .933333333333333 81 1 38
1 1578 379 337 0 347 374 343 834 83 3 833 .792156862745098 .819607843137255 .933
333333333333 81 1 347 1692 342 337 381 0 344 349 835 83 3 834 .792156862745098 .
819607843137255 .933333333333333 82 1 835 -481230482 82 1 832 -481558104 82 1 38
3 -480640658 83 3 382 .792156862745098 .819607843137255 .933333333333333 79 14 3
78 SWEntUnchanged82 1 354 -871824972 82 1 345 -481361554 17 206 0 318 52 314 46
 313 204 0 307 +141 251 225 251 251 229 19 13 485 0 1 0 8 4 S74 4 CI16 index_map
_offset0 0 1 dCCZ20 11 2 0 0 553 516 0 0 0 0 0 0 0 0 0 0 0 0 0 0 0 0 0 0 1 0 
